<?xml version="1.0" encoding="UTF-8"?>
<!DOCTYPE svg PUBLIC "-//W3C//DTD SVG 1.1//EN" "http://www.w3.org/Graphics/SVG/1.1/DTD/svg11.dtd">
<svg xmlns="http://www.w3.org/2000/svg" version="1.1" width="1029px" height="406px" style="shape-rendering:geometricPrecision; text-rendering:geometricPrecision; image-rendering:optimizeQuality; fill-rule:evenodd; clip-rule:evenodd" xmlns:xlink="http://www.w3.org/1999/xlink">
<g><path style="opacity:1" fill="#fefefe" d="M 603.5,1.5 C 735.522,1.17352 867.522,1.50686 999.5,2.5C 1001.38,3.34141 1003.38,3.67474 1005.5,3.5C 1010.4,5.73279 1014.4,9.06613 1017.5,13.5C 1017.43,15.0269 1018.09,16.0269 1019.5,16.5C 1020.67,17.5137 1021.34,18.847 1021.5,20.5C 1023.79,31.4279 1024.12,42.4279 1022.5,53.5C 1022.74,54.791 1022.4,55.791 1021.5,56.5C 1019.17,59.825 1016.84,63.1583 1014.5,66.5C 1009.44,70.361 1003.78,73.1943 997.5,75C 870.833,75.3333 744.167,75.6667 617.5,76C 610.987,76.1721 604.653,76.6721 598.5,77.5C 594.102,77.2941 589.768,77.6274 585.5,78.5C 552.989,82.1403 520.655,87.307 488.5,94C 472.259,96.6749 455.926,98.5082 439.5,99.5C 430.508,100.052 421.508,100.552 412.5,101C 285.5,101.5 158.5,101.667 31.5,101.5C 30.8333,101.5 30.1667,101.5 29.5,101.5C 27.4855,100.076 25.1522,99.4095 22.5,99.5C 20.1815,99.0075 18.1815,98.0075 16.5,96.5C 15.7377,94.7376 14.4044,93.7376 12.5,93.5C 7.96799,90.6365 4.96799,86.6365 3.5,81.5C 3.94649,78.9899 3.27983,76.9899 1.5,75.5C 1.04029,65.3863 1.70695,55.3863 3.5,45.5C 8.09343,38.9065 13.7601,33.2398 20.5,28.5C 24.0845,27.4172 27.7512,26.7506 31.5,26.5C 154.834,26.6667 278.167,26.5 401.5,26C 421.207,24.8146 440.873,23.1479 460.5,21C 494.649,15.2536 528.649,9.42027 562.5,3.5C 565.287,2.52333 568.287,2.19 571.5,2.5C 582.167,2.16667 592.833,1.83333 603.5,1.5 Z"/></g>
<g><path style="opacity:1" fill="#fdfdfd" d="M 598.5,152.5 C 732.846,152.178 867.18,152.512 1001.5,153.5C 1002.92,155.545 1004.92,156.545 1007.5,156.5C 1009.06,156.733 1010.4,157.4 1011.5,158.5C 1011.52,161.179 1012.86,162.512 1015.5,162.5C 1015.43,164.027 1016.09,165.027 1017.5,165.5C 1017.43,167.027 1018.09,168.027 1019.5,168.5C 1020.4,169.29 1021.07,170.29 1021.5,171.5C 1023.21,181.411 1023.88,191.411 1023.5,201.5C 1023.77,203.099 1023.43,204.432 1022.5,205.5C 1021.33,206.514 1020.66,207.847 1020.5,209.5C 1020.67,210.492 1020.34,211.158 1019.5,211.5C 1018.09,211.973 1017.43,212.973 1017.5,214.5C 1010.88,221.978 1002.54,225.978 992.5,226.5C 867.166,226.333 741.833,226.5 616.5,227C 614.942,227.21 613.609,227.71 612.5,228.5C 585.168,230.666 557.835,233.999 530.5,238.5C 527.482,238.335 524.482,238.502 521.5,239C 520.944,239.383 520.611,239.883 520.5,240.5C 520.167,240.5 519.833,240.5 519.5,240.5C 514.448,240.45 509.448,240.95 504.5,242C 503.944,242.383 503.611,242.883 503.5,243.5C 478.112,248.548 452.445,251.715 426.5,253C 293.333,253.833 160.333,253.666 27.5,252.5C 25.4855,251.076 23.1522,250.41 20.5,250.5C 19.2905,250.068 18.2905,249.401 17.5,248.5C 17.0269,247.094 16.0269,246.427 14.5,246.5C 13.0024,243.483 10.6691,241.483 7.5,240.5C 5.91378,238.33 4.58044,235.996 3.5,233.5C 3.97461,230.918 3.30794,228.918 1.5,227.5C 0.83443,223.681 0.501096,219.681 0.5,215.5C 0.307839,209.674 0.974506,204.007 2.5,198.5C 3.90632,198.027 4.57298,197.027 4.5,195.5C 4.32842,194.508 4.66175,193.842 5.5,193.5C 9.73752,187.767 15.0709,183.267 21.5,180C 24.7256,178.801 28.059,178.301 31.5,178.5C 157.167,178.667 282.834,178.5 408.5,178C 414.5,177.667 420.5,177.333 426.5,177C 429.742,176.594 432.742,175.761 435.5,174.5C 436.833,174.5 438.167,174.5 439.5,174.5C 443.534,174.495 447.534,174.162 451.5,173.5C 459.534,173.566 467.201,172.233 474.5,169.5C 479.092,168.402 483.759,167.735 488.5,167.5C 491.187,167.664 493.854,167.497 496.5,167C 497.416,166.722 498.082,166.222 498.5,165.5C 499.167,165.5 499.833,165.5 500.5,165.5C 503.428,165.435 506.095,164.768 508.5,163.5C 514.293,162.68 520.293,161.68 526.5,160.5C 533.16,160.694 539.493,159.694 545.5,157.5C 563.018,154.453 580.685,152.786 598.5,152.5 Z"/></g>
<g><path style="opacity:1" fill="#fdfdfd" d="M 599.5,304.5 C 732.518,304.175 865.518,304.509 998.5,305.5C 1000.38,306.341 1002.38,306.675 1004.5,306.5C 1006.88,307.351 1008.88,308.684 1010.5,310.5C 1011.03,312.446 1012.37,313.446 1014.5,313.5C 1015.49,314.795 1016.49,316.128 1017.5,317.5C 1017.43,319.027 1018.09,320.027 1019.5,320.5C 1020.67,321.514 1021.34,322.847 1021.5,324.5C 1023.13,333.752 1023.79,343.085 1023.5,352.5C 1023.27,355.542 1022.27,358.208 1020.5,360.5C 1018.67,362.147 1017.34,364.147 1016.5,366.5C 1014.5,367.833 1012.83,369.5 1011.5,371.5C 1005.37,375.268 998.701,377.768 991.5,379C 865.834,379.5 740.167,379.667 614.5,379.5C 602.266,379.431 590.266,380.431 578.5,382.5C 541.424,387.679 504.424,393.512 467.5,400C 452.194,401.639 436.86,402.972 421.5,404C 291.5,404.5 161.5,404.667 31.5,404.5C 31.1667,404.5 30.8333,404.5 30.5,404.5C 26.2871,402.649 21.9538,400.982 17.5,399.5C 15.5956,399.262 14.2623,398.262 13.5,396.5C 12.7298,394.065 11.0632,392.731 8.5,392.5C 7.07501,391.078 6.07501,389.411 5.5,387.5C 5.28911,383.818 3.95578,380.818 1.5,378.5C 1.5,378.167 1.5,377.833 1.5,377.5C 1.0602,368.051 1.72686,358.718 3.5,349.5C 4.37644,349.631 5.04311,349.298 5.5,348.5C 6.45327,345.574 7.7866,342.907 9.5,340.5C 16.2519,334.074 24.2519,330.408 33.5,329.5C 155.834,329.667 278.167,329.5 400.5,329C 430.27,327.86 459.604,324.36 488.5,318.5C 490.265,317.539 492.265,317.205 494.5,317.5C 502.421,316.903 510.087,315.57 517.5,313.5C 535.694,311.187 553.694,308.521 571.5,305.5C 580.886,305.78 590.22,305.447 599.5,304.5 Z"/></g>
</svg>